<svg width="346" height="173" viewBox="0 0 346 173" fill="none" xmlns="http://www.w3.org/2000/svg"><path d="M112.219 89.3591C105.451 86.9442 99.3047 83.0556 94.2236 77.9746C89.1425 72.8935 85.2539 66.7469 82.8391 59.9791C80.7093 65.1019 77.543 69.7288 73.5391 73.5691C64.5391 82.5691 53.1991 86.2291 41.4491 86.6791L41.6191 86.8491C33.194 87.0835 25.0255 89.7997 18.1377 94.6572C11.2498 99.5147 5.94902 106.297 2.8998 114.155C-0.149416 122.012 -0.81138 130.595 0.996848 138.827C2.80508 147.059 7.00303 154.574 13.0645 160.431C19.126 166.287 26.7814 170.223 35.0709 171.747C43.3604 173.271 51.9153 172.314 59.663 168.996C67.4108 165.678 74.0068 160.146 78.6242 153.095C83.2415 146.044 85.6749 137.787 85.6191 129.359C86.4791 118.109 89.9391 107.359 98.6191 98.6591C102.587 94.804 107.187 91.6583 112.219 89.3591Z" fill="#FF8300"/><path d="M333.409 12.5691C325.377 4.54019 314.486 0.0298462 303.129 0.0298462C291.772 0.0298462 280.881 4.54019 272.849 12.5691C265.123 20.2233 260.667 30.5762 260.419 41.4491C259.739 53.1991 256.349 64.4991 247.319 73.5391C243.419 77.4503 238.819 80.5947 233.759 82.8091C240.565 85.264 246.746 89.1893 251.863 94.3055C256.979 99.4217 260.904 105.603 263.359 112.409C265.429 107.27 268.592 102.643 272.629 98.8491C281.629 89.8491 292.959 86.1991 304.709 85.7491C315.595 85.4944 325.961 81.0405 333.639 73.3191C341.581 65.1891 346.009 54.2624 345.966 42.897C345.923 31.5315 341.413 20.6386 333.409 12.5691ZM318.499 58.1791C314.399 62.2142 308.882 64.4829 303.129 64.4991C300.278 64.5152 297.452 63.9648 294.815 62.8799C292.178 61.795 289.783 60.1971 287.769 58.1791C284.703 55.1357 282.609 51.2502 281.754 47.0154C280.899 42.7805 281.321 38.3872 282.967 34.3925C284.612 30.3978 287.407 26.9818 290.996 24.5777C294.586 22.1737 298.809 20.8898 303.129 20.8891C305.983 20.8724 308.811 21.4235 311.45 22.5102C314.089 23.5969 316.485 25.1976 318.499 27.2191C322.543 31.3059 324.817 36.8197 324.829 42.5691C324.87 45.4619 324.331 48.3336 323.244 51.0146C322.156 53.6957 320.543 56.1318 318.499 58.1791Z" fill="#00A6CE"/><path d="M246.639 99.2991C238.898 91.5618 228.48 87.094 217.539 86.8191L217.709 86.6491C205.959 86.1991 194.709 82.8091 185.619 73.5391C176.619 64.5391 172.969 53.1991 172.519 41.4491L172.349 41.6191C172.115 33.194 169.398 25.0255 164.541 18.1377C159.683 11.2498 152.901 5.94904 145.043 2.89982C137.186 -0.149401 128.603 -0.811387 120.371 0.996841C112.139 2.80507 104.624 7.00305 98.7676 13.0646C92.9113 19.1261 88.9746 26.7814 87.451 35.0709C85.9273 43.3604 86.8844 51.9152 90.2024 59.663C93.5204 67.4108 99.0516 74.0068 106.103 78.6242C113.154 83.2416 121.411 85.6749 129.839 85.6191C141.089 86.4791 151.839 89.9391 160.539 98.6191C169.239 107.299 172.869 118.079 173.539 129.329C173.492 136.383 175.188 143.34 178.478 149.58C181.767 155.821 186.547 161.152 192.393 165.1C198.239 169.048 204.97 171.491 211.987 172.211C219.005 172.931 226.091 171.906 232.617 169.228C239.143 166.549 244.906 162.3 249.394 156.857C253.882 151.415 256.956 144.948 258.343 138.031C259.729 131.114 259.386 123.962 257.342 117.21C255.298 110.458 251.618 104.316 246.629 99.3291L246.639 99.2991Z" fill="#54565A"/></svg>
